<svg width="443" height="48" viewBox="0 0 443 48" fill="none" xmlns="http://www.w3.org/2000/svg">
<path d="M182.086 37.8574H168.569C167.799 37.8574 167.036 37.7059 166.324 37.4116C165.613 37.1173 164.966 36.686 164.422 36.1425C163.878 35.5989 163.447 34.9537 163.154 34.2438C162.861 33.534 162.711 32.7735 162.713 32.0058V0.27191H143.562V32.0058C143.459 42.5555 150.286 47.6608 158.883 47.7625H201.203V0.27191H182.086V37.8574ZM125.5 26.6801C137.246 21.5918 135.544 0.678972 117.09 0.27191H75.025V47.7625H94.1935V31.2426H104.646C106.096 31.1454 107.538 31.5127 108.764 32.2909C109.989 33.069 110.932 34.2172 111.455 35.5676L117.073 47.7625H136.956C130.998 34.0751 130.709 30.3945 125.5 26.6801ZM106.638 21.1H94.3977V10.1771H106.638C115.371 10.5842 115.371 21.0491 106.638 21.1ZM44.7062 37.8574H35.5305C14.8129 37.7556 14.8129 10.5842 36.0412 10.1771H58.7165V0.000541339H26.0995C-8.76466 -0.186029 -8.18586 47.9152 26.0995 48H63.5512V21.3544H44.7062V37.8574ZM352.831 47.5251H372.136V0.27191H352.951L352.831 47.5251ZM423.428 21.3544V37.8574H414.763C393.994 37.7556 393.994 10.5842 415.274 10.1771H437.728V0.000541339H405.111C370.178 -0.186029 370.74 47.9152 405.111 47.7456H442.835V21.3544H423.428ZM318.189 0.27191H281.452V47.7625H317.899C353.972 47.6608 353.7 1.23868 318.189 0.27191ZM309.013 37.8574H300.603V10.1771H309.013C329.543 10.5842 329.543 37.7556 309.013 37.8574ZM254.725 0.0175059H212.422V47.7625H231.794V10.1771H245.294C246.067 10.1609 246.836 10.3008 247.554 10.5883C248.272 10.8758 248.924 11.3049 249.471 11.85C250.018 12.395 250.449 13.0447 250.737 13.7599C251.026 14.4751 251.166 15.241 251.15 16.0117V47.7625H270.267V15.7573C270.182 4.91922 263.645 0.102311 254.725 0.0175059Z" fill="white"/>
</svg>
